# Blender v2.83.2 OBJ File: 'AXE_Box.blend'
# www.blender.org
mtllib AXE_Box.mtl
o Cube
v 1.275000 4.625000 -1.600000
v 1.275000 -4.625000 -1.600000
v 1.275000 4.625000 1.600000
v 1.275000 -4.625000 1.600000
v -1.275000 4.625000 -1.600000
v -1.275000 -4.625000 -1.600000
v -1.275000 4.625000 1.600000
v -1.275000 -4.625000 1.600000
vt 0.401516 0.822091
vt 0.405299 0.998646
vt 0.177574 1.002319
vt 0.178809 0.820967
vt 0.175025 0.176786
vt 0.000017 0.821043
vt 0.001252 0.178060
vt 0.823070 0.177758
vt 0.820580 0.821940
vt 0.586581 0.820816
vt 0.592835 0.179033
vt 0.409004 0.000155
vt 0.407769 0.176710
vt 0.175005 -0.000969
vn 0.0000 1.0000 0.0000
vn 0.0000 0.0000 1.0000
vn -1.0000 0.0000 0.0000
vn 0.0000 -1.0000 0.0000
vn 1.0000 0.0000 0.0000
vn 0.0000 0.0000 -1.0000
g Cube_Cube_Material
usemtl Material
s off
f 1/1/1 5/2/1 7/3/1 3/4/1
f 4/5/2 3/4/2 7/6/2 8/7/2
f 8/8/3 7/9/3 5/10/3 6/11/3
f 6/12/4 2/13/4 4/5/4 8/14/4
f 2/13/5 1/1/5 3/4/5 4/5/5
f 6/11/6 5/10/6 1/1/6 2/13/6
